<svg xmlns="http://www.w3.org/2000/svg" xmlns:xlink="http://www.w3.org/1999/xlink" width="700" zoomAndPan="magnify" viewBox="0 0 525 149.999998" height="200" preserveAspectRatio="xMidYMid meet" version="1.0"><defs><g/><clipPath id="6a6c80b924"><path d="M 20.417969 18.683594 L 136.667969 18.683594 L 136.667969 128.933594 L 20.417969 128.933594 Z M 20.417969 18.683594 " clip-rule="nonzero"/></clipPath></defs><g fill="#52afe6" fill-opacity="1"><g transform="translate(137.321627, 84.066729)"><g><path d="M 6.359375 -13.65625 L 6.359375 0 L 2.21875 0 L 2.21875 -21.296875 L 5.4375 -21.296875 L 16.53125 -7.3125 L 16.53125 -21.265625 L 20.671875 -21.265625 L 20.671875 0 L 17.3125 0 Z M 6.359375 -13.65625 "/></g></g></g><g fill="#52afe6" fill-opacity="1"><g transform="translate(162.002718, 84.066729)"><g><path d="M 17.015625 -3.625 L 17.015625 0 L 2.21875 0 L 2.21875 -21.296875 L 16.734375 -21.296875 L 16.734375 -17.671875 L 6.359375 -17.671875 L 6.359375 -12.546875 L 15.328125 -12.546875 L 15.328125 -9.1875 L 6.359375 -9.1875 L 6.359375 -3.625 Z M 17.015625 -3.625 "/></g></g></g><g fill="#52afe6" fill-opacity="1"><g transform="translate(181.8257, 84.066729)"><g><path d="M 18.15625 -17.671875 L 11.34375 -17.671875 L 11.34375 0 L 7.234375 0 L 7.234375 -17.671875 L 0.421875 -17.671875 L 0.421875 -21.296875 L 18.15625 -21.296875 Z M 18.15625 -17.671875 "/></g></g></g><g fill="#52afe6" fill-opacity="1"><g transform="translate(202.188469, 84.066729)"><g><path d="M 9.5625 -21.234375 L 13.375 -21.234375 L 15.78125 -14.1875 L 18.1875 -21.234375 L 22.015625 -21.234375 L 18.390625 -11.546875 L 21.09375 -4.734375 L 27.125 -21.296875 L 31.625 -21.296875 L 22.953125 0 L 19.46875 0 L 15.78125 -8.9375 L 12.09375 0 L 8.609375 0 L 0 -21.296875 L 4.4375 -21.296875 L 10.5 -4.734375 L 13.140625 -11.546875 Z M 9.5625 -21.234375 "/></g></g></g><g fill="#52afe6" fill-opacity="1"><g transform="translate(235.566174, 84.066729)"><g><path d="M 11.3125 0.15625 C 9.75 0.15625 8.332031 -0.148438 7.0625 -0.765625 C 5.789062 -1.378906 4.703125 -2.1875 3.796875 -3.1875 C 2.890625 -4.195312 2.1875 -5.351562 1.6875 -6.65625 C 1.1875 -7.957031 0.9375 -9.289062 0.9375 -10.65625 C 0.9375 -12.070312 1.195312 -13.429688 1.71875 -14.734375 C 2.25 -16.035156 2.976562 -17.1875 3.90625 -18.1875 C 4.84375 -19.1875 5.953125 -19.976562 7.234375 -20.5625 C 8.515625 -21.15625 9.90625 -21.453125 11.40625 -21.453125 C 12.9375 -21.453125 14.335938 -21.132812 15.609375 -20.5 C 16.878906 -19.875 17.960938 -19.050781 18.859375 -18.03125 C 19.765625 -17.007812 20.46875 -15.847656 20.96875 -14.546875 C 21.46875 -13.242188 21.71875 -11.925781 21.71875 -10.59375 C 21.71875 -9.164062 21.457031 -7.804688 20.9375 -6.515625 C 20.414062 -5.234375 19.695312 -4.097656 18.78125 -3.109375 C 17.863281 -2.117188 16.765625 -1.328125 15.484375 -0.734375 C 14.203125 -0.140625 12.8125 0.15625 11.3125 0.15625 Z M 5.125 -10.65625 C 5.125 -9.726562 5.265625 -8.832031 5.546875 -7.96875 C 5.828125 -7.113281 6.234375 -6.351562 6.765625 -5.6875 C 7.296875 -5.03125 7.945312 -4.503906 8.71875 -4.109375 C 9.488281 -3.710938 10.363281 -3.515625 11.34375 -3.515625 C 12.34375 -3.515625 13.226562 -3.71875 14 -4.125 C 14.769531 -4.53125 15.414062 -5.070312 15.9375 -5.75 C 16.46875 -6.4375 16.867188 -7.203125 17.140625 -8.046875 C 17.410156 -8.898438 17.546875 -9.769531 17.546875 -10.65625 C 17.546875 -11.570312 17.398438 -12.457031 17.109375 -13.3125 C 16.828125 -14.175781 16.421875 -14.9375 15.890625 -15.59375 C 15.359375 -16.257812 14.707031 -16.785156 13.9375 -17.171875 C 13.164062 -17.566406 12.300781 -17.765625 11.34375 -17.765625 C 10.34375 -17.765625 9.453125 -17.554688 8.671875 -17.140625 C 7.890625 -16.734375 7.238281 -16.191406 6.71875 -15.515625 C 6.195312 -14.847656 5.800781 -14.085938 5.53125 -13.234375 C 5.257812 -12.390625 5.125 -11.53125 5.125 -10.65625 Z M 5.125 -10.65625 "/></g></g></g><g fill="#52afe6" fill-opacity="1"><g transform="translate(260.037349, 84.066729)"><g><path d="M 2.21875 0 L 2.21875 -21.296875 L 11.640625 -21.296875 C 12.617188 -21.296875 13.519531 -21.085938 14.34375 -20.671875 C 15.175781 -20.265625 15.894531 -19.726562 16.5 -19.0625 C 17.101562 -18.394531 17.570312 -17.632812 17.90625 -16.78125 C 18.25 -15.9375 18.421875 -15.082031 18.421875 -14.21875 C 18.421875 -12.84375 18.070312 -11.585938 17.375 -10.453125 C 16.6875 -9.328125 15.753906 -8.515625 14.578125 -8.015625 L 19.4375 0 L 14.796875 0 L 10.4375 -7.140625 L 6.359375 -7.140625 L 6.359375 0 Z M 6.359375 -10.765625 L 11.546875 -10.765625 C 11.929688 -10.765625 12.285156 -10.851562 12.609375 -11.03125 C 12.941406 -11.21875 13.226562 -11.460938 13.46875 -11.765625 C 13.707031 -12.078125 13.894531 -12.441406 14.03125 -12.859375 C 14.175781 -13.285156 14.25 -13.738281 14.25 -14.21875 C 14.25 -14.71875 14.164062 -15.175781 14 -15.59375 C 13.84375 -16.019531 13.628906 -16.382812 13.359375 -16.6875 C 13.085938 -17 12.773438 -17.238281 12.421875 -17.40625 C 12.078125 -17.582031 11.726562 -17.671875 11.375 -17.671875 L 6.359375 -17.671875 Z M 6.359375 -10.765625 "/></g></g></g><g fill="#52afe6" fill-opacity="1"><g transform="translate(281.779589, 84.066729)"><g><path d="M 2.21875 0 L 2.21875 -21.265625 L 6.359375 -21.265625 L 6.359375 -11.15625 L 15.296875 -21.296875 L 19.859375 -21.296875 L 11.703125 -11.84375 L 20.375 0 L 15.71875 0 L 9.09375 -9.203125 L 6.359375 -6.359375 L 6.359375 0 Z M 2.21875 0 "/></g></g></g><g fill="#52afe6" fill-opacity="1"><g transform="translate(303.634117, 84.066729)"><g/></g></g><g fill="#303030" fill-opacity="1"><g transform="translate(306.869194, 81.066729)"><g><path d="M 10.265625 0.390625 C 7.316406 0.390625 5.035156 -0.40625 3.421875 -2 C 1.816406 -3.59375 1.015625 -5.875 1.015625 -8.84375 C 1.015625 -11.800781 1.804688 -14.078125 3.390625 -15.671875 C 4.972656 -17.265625 7.238281 -18.0625 10.1875 -18.0625 C 11.363281 -18.0625 12.453125 -17.941406 13.453125 -17.703125 C 14.460938 -17.460938 15.316406 -17.117188 16.015625 -16.671875 C 16.171875 -16.566406 16.25 -16.453125 16.25 -16.328125 C 16.25 -16.222656 16.207031 -16.101562 16.125 -15.96875 L 15.390625 -14.71875 C 15.285156 -14.5625 15.191406 -14.484375 15.109375 -14.484375 C 15.035156 -14.484375 14.910156 -14.523438 14.734375 -14.609375 C 13.648438 -15.265625 12.257812 -15.59375 10.5625 -15.59375 C 8.601562 -15.59375 7.066406 -15.03125 5.953125 -13.90625 C 4.847656 -12.78125 4.296875 -11.09375 4.296875 -8.84375 C 4.296875 -6.550781 4.863281 -4.84375 6 -3.71875 C 7.144531 -2.601562 8.691406 -2.046875 10.640625 -2.046875 C 12.441406 -2.046875 13.921875 -2.382812 15.078125 -3.0625 C 15.253906 -3.15625 15.367188 -3.203125 15.421875 -3.203125 C 15.523438 -3.203125 15.628906 -3.125 15.734375 -2.96875 L 16.53125 -1.609375 C 16.582031 -1.503906 16.609375 -1.421875 16.609375 -1.359375 C 16.609375 -1.253906 16.515625 -1.140625 16.328125 -1.015625 C 14.992188 -0.078125 12.972656 0.390625 10.265625 0.390625 Z M 10.265625 0.390625 "/></g></g></g><g fill="#303030" fill-opacity="1"><g transform="translate(326.025915, 81.066729)"><g><path d="M 9.90625 0.390625 C 7.039062 0.390625 4.84375 -0.414062 3.3125 -2.03125 C 1.78125 -3.644531 1.015625 -5.914062 1.015625 -8.84375 C 1.015625 -11.769531 1.78125 -14.035156 3.3125 -15.640625 C 4.84375 -17.253906 7.039062 -18.0625 9.90625 -18.0625 C 12.75 -18.0625 14.941406 -17.253906 16.484375 -15.640625 C 18.023438 -14.035156 18.796875 -11.769531 18.796875 -8.84375 C 18.796875 -5.914062 18.023438 -3.644531 16.484375 -2.03125 C 14.941406 -0.414062 12.75 0.390625 9.90625 0.390625 Z M 9.90625 -2.046875 C 11.726562 -2.046875 13.113281 -2.625 14.0625 -3.78125 C 15.019531 -4.9375 15.5 -6.625 15.5 -8.84375 C 15.5 -11.0625 15.019531 -12.738281 14.0625 -13.875 C 13.113281 -15.019531 11.726562 -15.59375 9.90625 -15.59375 C 8.082031 -15.59375 6.691406 -15.019531 5.734375 -13.875 C 4.773438 -12.738281 4.296875 -11.0625 4.296875 -8.84375 C 4.296875 -6.625 4.773438 -4.9375 5.734375 -3.78125 C 6.691406 -2.625 8.082031 -2.046875 9.90625 -2.046875 Z M 9.90625 -2.046875 "/></g></g></g><g fill="#303030" fill-opacity="1"><g transform="translate(347.391974, 81.066729)"><g><path d="M 2.5 0 C 2.144531 0 1.894531 -0.078125 1.75 -0.234375 C 1.601562 -0.390625 1.53125 -0.625 1.53125 -0.9375 L 1.53125 -16.71875 C 1.53125 -17.050781 1.601562 -17.296875 1.75 -17.453125 C 1.894531 -17.609375 2.144531 -17.6875 2.5 -17.6875 L 9.28125 -17.6875 C 11.289062 -17.6875 12.816406 -17.21875 13.859375 -16.28125 C 14.910156 -15.34375 15.4375 -13.953125 15.4375 -12.109375 C 15.4375 -10.898438 15.148438 -9.863281 14.578125 -9 C 14.015625 -8.144531 13.1875 -7.503906 12.09375 -7.078125 L 14.96875 -0.671875 C 15.019531 -0.566406 15.046875 -0.472656 15.046875 -0.390625 C 15.046875 -0.128906 14.894531 0 14.59375 0 L 12.453125 0 C 12.222656 0 12.054688 -0.03125 11.953125 -0.09375 C 11.847656 -0.15625 11.753906 -0.28125 11.671875 -0.46875 L 9.046875 -6.625 L 4.859375 -6.625 L 4.859375 -0.9375 C 4.859375 -0.625 4.785156 -0.390625 4.640625 -0.234375 C 4.492188 -0.078125 4.238281 0 3.875 0 Z M 8.609375 -9.125 C 9.816406 -9.125 10.707031 -9.359375 11.28125 -9.828125 C 11.851562 -10.296875 12.140625 -11.054688 12.140625 -12.109375 C 12.140625 -13.148438 11.878906 -13.910156 11.359375 -14.390625 C 10.835938 -14.878906 10.050781 -15.125 9 -15.125 L 4.859375 -15.125 L 4.859375 -9.125 Z M 8.609375 -9.125 "/></g></g></g><g fill="#303030" fill-opacity="1"><g transform="translate(365.405028, 81.066729)"><g><path d="M 2.5 0 C 2.144531 0 1.894531 -0.078125 1.75 -0.234375 C 1.601562 -0.390625 1.53125 -0.625 1.53125 -0.9375 L 1.53125 -16.71875 C 1.53125 -17.050781 1.601562 -17.296875 1.75 -17.453125 C 1.894531 -17.609375 2.144531 -17.6875 2.5 -17.6875 L 9.15625 -17.6875 C 11.28125 -17.6875 12.859375 -17.175781 13.890625 -16.15625 C 14.921875 -15.144531 15.4375 -13.691406 15.4375 -11.796875 C 15.4375 -9.929688 14.921875 -8.492188 13.890625 -7.484375 C 12.859375 -6.484375 11.28125 -5.984375 9.15625 -5.984375 L 4.859375 -5.984375 L 4.859375 -0.9375 C 4.859375 -0.625 4.785156 -0.390625 4.640625 -0.234375 C 4.492188 -0.078125 4.238281 0 3.875 0 Z M 9 -8.5 C 10.050781 -8.5 10.835938 -8.769531 11.359375 -9.3125 C 11.878906 -9.863281 12.140625 -10.691406 12.140625 -11.796875 C 12.140625 -12.929688 11.878906 -13.769531 11.359375 -14.3125 C 10.835938 -14.851562 10.050781 -15.125 9 -15.125 L 4.859375 -15.125 L 4.859375 -8.5 Z M 9 -8.5 "/></g></g></g><g fill="#303030" fill-opacity="1"><g transform="translate(382.898248, 81.066729)"><g><path d="M 9.90625 0.390625 C 7.039062 0.390625 4.84375 -0.414062 3.3125 -2.03125 C 1.78125 -3.644531 1.015625 -5.914062 1.015625 -8.84375 C 1.015625 -11.769531 1.78125 -14.035156 3.3125 -15.640625 C 4.84375 -17.253906 7.039062 -18.0625 9.90625 -18.0625 C 12.75 -18.0625 14.941406 -17.253906 16.484375 -15.640625 C 18.023438 -14.035156 18.796875 -11.769531 18.796875 -8.84375 C 18.796875 -5.914062 18.023438 -3.644531 16.484375 -2.03125 C 14.941406 -0.414062 12.75 0.390625 9.90625 0.390625 Z M 9.90625 -2.046875 C 11.726562 -2.046875 13.113281 -2.625 14.0625 -3.78125 C 15.019531 -4.9375 15.5 -6.625 15.5 -8.84375 C 15.5 -11.0625 15.019531 -12.738281 14.0625 -13.875 C 13.113281 -15.019531 11.726562 -15.59375 9.90625 -15.59375 C 8.082031 -15.59375 6.691406 -15.019531 5.734375 -13.875 C 4.773438 -12.738281 4.296875 -11.0625 4.296875 -8.84375 C 4.296875 -6.625 4.773438 -4.9375 5.734375 -3.78125 C 6.691406 -2.625 8.082031 -2.046875 9.90625 -2.046875 Z M 9.90625 -2.046875 "/></g></g></g><g fill="#303030" fill-opacity="1"><g transform="translate(404.264303, 81.066729)"><g><path d="M 2.5 0 C 2.144531 0 1.894531 -0.078125 1.75 -0.234375 C 1.601562 -0.390625 1.53125 -0.625 1.53125 -0.9375 L 1.53125 -16.71875 C 1.53125 -17.050781 1.601562 -17.296875 1.75 -17.453125 C 1.894531 -17.609375 2.144531 -17.6875 2.5 -17.6875 L 9.28125 -17.6875 C 11.289062 -17.6875 12.816406 -17.21875 13.859375 -16.28125 C 14.910156 -15.34375 15.4375 -13.953125 15.4375 -12.109375 C 15.4375 -10.898438 15.148438 -9.863281 14.578125 -9 C 14.015625 -8.144531 13.1875 -7.503906 12.09375 -7.078125 L 14.96875 -0.671875 C 15.019531 -0.566406 15.046875 -0.472656 15.046875 -0.390625 C 15.046875 -0.128906 14.894531 0 14.59375 0 L 12.453125 0 C 12.222656 0 12.054688 -0.03125 11.953125 -0.09375 C 11.847656 -0.15625 11.753906 -0.28125 11.671875 -0.46875 L 9.046875 -6.625 L 4.859375 -6.625 L 4.859375 -0.9375 C 4.859375 -0.625 4.785156 -0.390625 4.640625 -0.234375 C 4.492188 -0.078125 4.238281 0 3.875 0 Z M 8.609375 -9.125 C 9.816406 -9.125 10.707031 -9.359375 11.28125 -9.828125 C 11.851562 -10.296875 12.140625 -11.054688 12.140625 -12.109375 C 12.140625 -13.148438 11.878906 -13.910156 11.359375 -14.390625 C 10.835938 -14.878906 10.050781 -15.125 9 -15.125 L 4.859375 -15.125 L 4.859375 -9.125 Z M 8.609375 -9.125 "/></g></g></g><g fill="#303030" fill-opacity="1"><g transform="translate(422.277359, 81.066729)"><g><path d="M 1.453125 0 C 1.160156 0 1.015625 -0.128906 1.015625 -0.390625 C 1.015625 -0.492188 1.039062 -0.609375 1.09375 -0.734375 L 7.953125 -17 C 8.054688 -17.257812 8.164062 -17.4375 8.28125 -17.53125 C 8.40625 -17.632812 8.582031 -17.6875 8.8125 -17.6875 L 10.25 -17.6875 C 10.488281 -17.6875 10.664062 -17.632812 10.78125 -17.53125 C 10.894531 -17.4375 11.003906 -17.257812 11.109375 -17 L 17.96875 -0.734375 C 18.019531 -0.609375 18.046875 -0.492188 18.046875 -0.390625 C 18.046875 -0.128906 17.898438 0 17.609375 0 L 15.34375 0 C 15.113281 0 14.953125 -0.03125 14.859375 -0.09375 C 14.765625 -0.15625 14.675781 -0.28125 14.59375 -0.46875 L 13.109375 -4.109375 L 5.921875 -4.109375 L 4.46875 -0.46875 C 4.382812 -0.28125 4.296875 -0.15625 4.203125 -0.09375 C 4.109375 -0.03125 3.945312 0 3.71875 0 Z M 12.265625 -6.53125 L 9.515625 -13.34375 L 6.765625 -6.53125 Z M 12.265625 -6.53125 "/></g></g></g><g fill="#303030" fill-opacity="1"><g transform="translate(442.888722, 81.066729)"><g/></g></g><g clip-path="url(#6a6c80b924)"><path fill="#303030" d="M 136.667969 74.285156 C 136.667969 62.800781 127.28125 53.457031 115.746094 53.457031 C 104.210938 53.457031 94.824219 62.800781 94.824219 74.285156 C 94.824219 80.53125 97.605469 86.140625 101.996094 89.960938 L 91.03125 97.347656 C 89.046875 95.5 86.664062 94.070312 84.011719 93.242188 C 83.996094 93.238281 83.984375 93.234375 83.96875 93.230469 C 82.539062 92.785156 81.023438 92.535156 79.464844 92.457031 L 79.464844 60.425781 C 82.699219 60.285156 85.742188 59.410156 88.433594 57.96875 C 88.457031 57.957031 88.472656 57.945312 88.492188 57.9375 C 95.023438 54.40625 99.464844 47.519531 99.464844 39.621094 C 99.464844 28.136719 90.082031 18.792969 78.542969 18.792969 C 67.007812 18.792969 57.621094 28.136719 57.621094 39.621094 C 57.621094 47.519531 62.0625 54.40625 68.59375 57.9375 C 68.613281 57.945312 68.632812 57.957031 68.652344 57.96875 C 71.34375 59.410156 74.390625 60.285156 77.621094 60.425781 L 77.621094 92.457031 C 76.0625 92.535156 74.546875 92.785156 73.117188 93.226562 C 73.101562 93.230469 73.089844 93.238281 73.078125 93.242188 C 70.421875 94.070312 68.039062 95.5 66.058594 97.347656 L 55.089844 89.960938 C 59.480469 86.140625 62.261719 80.53125 62.261719 74.285156 C 62.261719 62.800781 52.875 53.457031 41.339844 53.457031 C 29.804688 53.457031 20.417969 62.800781 20.417969 74.285156 C 20.417969 82.1875 24.863281 89.074219 31.390625 92.601562 C 31.410156 92.613281 31.429688 92.625 31.449219 92.632812 C 34.394531 94.210938 37.765625 95.113281 41.339844 95.113281 C 44.917969 95.113281 48.285156 94.210938 51.230469 92.632812 C 51.25 92.625 51.269531 92.613281 51.289062 92.601562 C 52.085938 92.171875 52.847656 91.6875 53.578125 91.160156 L 64.753906 98.691406 C 64.007812 99.542969 63.34375 100.464844 62.765625 101.445312 C 62.710938 101.515625 62.660156 101.585938 62.628906 101.671875 C 61.121094 104.316406 60.25 107.367188 60.25 110.621094 C 60.25 113.875 61.121094 116.925781 62.628906 119.570312 C 62.660156 119.65625 62.714844 119.730469 62.769531 119.804688 C 65.050781 123.671875 68.714844 126.644531 73.09375 128.007812 C 73.117188 128.011719 73.136719 128.019531 73.160156 128.023438 C 74.863281 128.546875 76.667969 128.832031 78.539062 128.832031 C 80.414062 128.832031 82.222656 128.546875 83.921875 128.023438 C 83.945312 128.019531 83.964844 128.011719 83.988281 128.007812 C 88.363281 126.644531 92.019531 123.679688 94.304688 119.816406 C 94.367188 119.742188 94.421875 119.660156 94.457031 119.570312 C 95.960938 116.921875 96.835938 113.875 96.835938 110.621094 C 96.835938 107.367188 95.960938 104.320312 94.457031 101.671875 C 94.421875 101.582031 94.367188 101.507812 94.308594 101.433594 C 93.734375 100.457031 93.070312 99.539062 92.328125 98.691406 L 103.503906 91.160156 C 104.234375 91.6875 104.996094 92.171875 105.796875 92.605469 C 105.816406 92.613281 105.832031 92.625 105.851562 92.632812 C 108.800781 94.210938 112.167969 95.113281 115.742188 95.113281 C 119.320312 95.113281 122.6875 94.214844 125.636719 92.632812 C 125.65625 92.625 125.671875 92.613281 125.691406 92.605469 C 132.226562 89.074219 136.667969 82.1875 136.667969 74.285156 Z M 22.265625 74.285156 C 22.265625 63.8125 30.820312 55.292969 41.339844 55.292969 C 51.859375 55.292969 60.417969 63.8125 60.417969 74.285156 C 60.417969 80.949219 56.945312 86.808594 51.714844 90.199219 C 51.453125 86.691406 50.402344 78.28125 46.285156 74.421875 C 48.074219 72.984375 49.226562 70.785156 49.226562 68.320312 C 49.226562 63.992188 45.6875 60.472656 41.34375 60.472656 C 36.996094 60.472656 33.460938 63.992188 33.460938 68.320312 C 33.460938 70.785156 34.609375 72.984375 36.398438 74.421875 C 32.28125 78.28125 31.230469 86.691406 30.96875 90.199219 C 25.738281 86.808594 22.265625 80.949219 22.265625 74.285156 Z M 35.304688 68.320312 C 35.304688 65.007812 38.011719 62.3125 41.339844 62.3125 C 44.667969 62.3125 47.378906 65.007812 47.378906 68.320312 C 47.378906 71.636719 44.667969 74.332031 41.339844 74.332031 C 38.011719 74.332031 35.304688 71.636719 35.304688 68.320312 Z M 32.753906 91.21875 C 32.894531 88.707031 33.710938 78.886719 38.035156 75.433594 C 39.042969 75.902344 40.160156 76.167969 41.339844 76.167969 C 42.523438 76.167969 43.640625 75.902344 44.648438 75.433594 C 48.96875 78.886719 49.789062 88.707031 49.929688 91.21875 C 47.34375 92.523438 44.433594 93.273438 41.339844 93.273438 C 38.25 93.273438 35.339844 92.523438 32.753906 91.21875 Z M 93.046875 118.328125 L 88.0625 118.328125 C 88.605469 116.066406 88.90625 113.804688 88.972656 111.539062 L 94.945312 111.539062 C 94.808594 113.980469 94.148438 116.285156 93.046875 118.328125 Z M 79.464844 126.945312 L 79.464844 120.164062 L 85.640625 120.164062 C 84.996094 122.230469 84.144531 124.289062 83.078125 126.347656 C 81.921875 126.679688 80.710938 126.878906 79.464844 126.945312 Z M 74.011719 126.347656 C 72.945312 124.292969 72.089844 122.230469 71.445312 120.164062 L 77.621094 120.164062 L 77.621094 126.949219 C 76.375 126.878906 75.167969 126.679688 74.011719 126.347656 Z M 62.140625 111.539062 L 68.117188 111.539062 C 68.179688 113.804688 68.484375 116.066406 69.023438 118.328125 L 64.039062 118.328125 C 62.941406 116.285156 62.277344 113.980469 62.140625 111.539062 Z M 64.039062 102.914062 L 69.023438 102.914062 C 68.484375 105.175781 68.179688 107.4375 68.117188 109.703125 L 62.140625 109.703125 C 62.277344 107.261719 62.941406 104.957031 64.039062 102.914062 Z M 71.480469 95.855469 C 70.679688 97.59375 70.035156 99.335938 69.519531 101.078125 L 65.207031 101.078125 C 66.816406 98.851562 68.972656 97.050781 71.480469 95.855469 Z M 77.621094 94.292969 L 77.621094 101.078125 L 71.445312 101.078125 C 72.09375 99.011719 72.945312 96.949219 74.011719 94.894531 C 75.167969 94.5625 76.375 94.363281 77.621094 94.292969 Z M 83.078125 94.894531 C 84.140625 96.953125 84.996094 99.011719 85.640625 101.078125 L 79.464844 101.078125 L 79.464844 94.292969 C 80.710938 94.363281 81.921875 94.5625 83.078125 94.894531 Z M 79.464844 102.914062 L 86.164062 102.914062 C 86.734375 105.175781 87.042969 107.4375 87.113281 109.703125 L 79.464844 109.703125 Z M 77.621094 109.703125 L 69.972656 109.703125 C 70.042969 107.4375 70.355469 105.175781 70.925781 102.914062 L 77.621094 102.914062 Z M 69.972656 111.539062 L 77.621094 111.539062 L 77.621094 118.328125 L 70.925781 118.328125 C 70.355469 116.066406 70.042969 113.804688 69.972656 111.539062 Z M 79.464844 118.328125 L 79.464844 111.539062 L 87.113281 111.539062 C 87.046875 113.804688 86.734375 116.066406 86.164062 118.328125 Z M 88.972656 109.703125 C 88.90625 107.4375 88.605469 105.175781 88.0625 102.914062 L 93.046875 102.914062 C 94.148438 104.957031 94.808594 107.261719 94.945312 109.703125 Z M 87.570312 101.078125 C 87.050781 99.335938 86.410156 97.59375 85.609375 95.855469 C 88.117188 97.050781 90.269531 98.851562 91.882812 101.078125 Z M 69.957031 56.554688 C 70.09375 54.042969 70.910156 44.226562 75.238281 40.769531 C 76.246094 41.238281 77.363281 41.503906 78.542969 41.503906 C 79.726562 41.503906 80.84375 41.238281 81.847656 40.769531 C 86.171875 44.222656 86.992188 54.042969 87.128906 56.554688 C 84.546875 57.859375 81.632812 58.609375 78.542969 58.609375 C 75.453125 58.609375 72.542969 57.859375 69.957031 56.554688 Z M 78.542969 39.667969 C 75.214844 39.667969 72.507812 36.972656 72.507812 33.65625 C 72.507812 30.34375 75.214844 27.648438 78.542969 27.648438 C 81.871094 27.648438 84.582031 30.34375 84.582031 33.65625 C 84.582031 36.972656 81.871094 39.667969 78.542969 39.667969 Z M 59.464844 39.621094 C 59.464844 29.148438 68.023438 20.628906 78.542969 20.628906 C 89.0625 20.628906 97.621094 29.148438 97.621094 39.621094 C 97.621094 46.285156 94.148438 52.144531 88.917969 55.535156 C 88.65625 52.027344 87.605469 43.617188 83.488281 39.757812 C 85.277344 38.320312 86.425781 36.121094 86.425781 33.65625 C 86.425781 29.328125 82.890625 25.808594 78.542969 25.808594 C 74.199219 25.808594 70.660156 29.328125 70.660156 33.65625 C 70.660156 36.121094 71.808594 38.320312 73.597656 39.757812 C 69.480469 43.617188 68.433594 52.027344 68.171875 55.535156 C 62.941406 52.144531 59.464844 46.285156 59.464844 39.621094 Z M 65.207031 120.164062 L 69.515625 120.164062 C 70.035156 121.90625 70.675781 123.648438 71.480469 125.386719 C 68.972656 124.191406 66.816406 122.390625 65.207031 120.164062 Z M 85.609375 125.382812 C 86.410156 123.648438 87.054688 121.90625 87.570312 120.164062 L 91.882812 120.164062 C 90.269531 122.390625 88.117188 124.191406 85.609375 125.382812 Z M 96.667969 74.285156 C 96.667969 63.8125 105.226562 55.292969 115.746094 55.292969 C 126.265625 55.292969 134.824219 63.8125 134.824219 74.285156 C 134.824219 80.949219 131.351562 86.808594 126.121094 90.199219 C 125.859375 86.691406 124.808594 78.28125 120.691406 74.421875 C 122.480469 72.984375 123.628906 70.785156 123.628906 68.320312 C 123.628906 63.992188 120.09375 60.472656 115.746094 60.472656 C 111.398438 60.472656 107.863281 63.992188 107.863281 68.320312 C 107.863281 70.785156 109.011719 72.984375 110.800781 74.421875 C 106.683594 78.28125 105.636719 86.691406 105.375 90.199219 C 100.144531 86.808594 96.667969 80.949219 96.667969 74.285156 Z M 109.707031 68.320312 C 109.707031 65.007812 112.417969 62.3125 115.746094 62.3125 C 119.074219 62.3125 121.785156 65.007812 121.785156 68.320312 C 121.785156 71.636719 119.074219 74.332031 115.746094 74.332031 C 112.417969 74.332031 109.707031 71.636719 109.707031 68.320312 Z M 107.160156 91.21875 C 107.296875 88.707031 108.113281 78.890625 112.441406 75.433594 C 113.449219 75.902344 114.566406 76.167969 115.746094 76.167969 C 116.925781 76.167969 118.046875 75.902344 119.050781 75.433594 C 123.375 78.886719 124.195312 88.707031 124.332031 91.21875 C 121.75 92.523438 118.835938 93.273438 115.746094 93.273438 C 112.65625 93.273438 109.742188 92.523438 107.160156 91.21875 Z M 107.160156 91.21875 " fill-opacity="1" fill-rule="nonzero"/></g><g fill="#303030" fill-opacity="1"><g transform="translate(435.634179, 80.316729)"><g><path d="M 10.140625 0 C 9.640625 0 9.273438 -0.113281 9.046875 -0.34375 C 8.816406 -0.570312 8.703125 -0.914062 8.703125 -1.375 L 8.703125 -22.109375 L 2.046875 -22.109375 C 1.546875 -22.109375 1.195312 -22.207031 1 -22.40625 C 0.8125 -22.613281 0.71875 -22.960938 0.71875 -23.453125 L 0.71875 -24.46875 C 0.71875 -24.945312 0.8125 -25.296875 1 -25.515625 C 1.195312 -25.734375 1.546875 -25.84375 2.046875 -25.84375 L 20.21875 -25.84375 C 20.71875 -25.84375 21.066406 -25.734375 21.265625 -25.515625 C 21.472656 -25.296875 21.578125 -24.945312 21.578125 -24.46875 L 21.578125 -23.453125 C 21.578125 -22.960938 21.472656 -22.613281 21.265625 -22.40625 C 21.066406 -22.207031 20.71875 -22.109375 20.21875 -22.109375 L 13.5625 -22.109375 L 13.5625 -1.375 C 13.5625 -0.914062 13.453125 -0.570312 13.234375 -0.34375 C 13.023438 -0.113281 12.65625 0 12.125 0 Z M 10.140625 0 "/></g></g></g><g fill="#303030" fill-opacity="1"><g transform="translate(460.215592, 80.316729)"><g><path d="M 3.640625 0 C 3.140625 0 2.78125 -0.113281 2.5625 -0.34375 C 2.34375 -0.570312 2.234375 -0.914062 2.234375 -1.375 L 2.234375 -24.4375 C 2.234375 -24.914062 2.34375 -25.269531 2.5625 -25.5 C 2.78125 -25.726562 3.140625 -25.84375 3.640625 -25.84375 L 5.65625 -25.84375 C 6.164062 -25.84375 6.535156 -25.726562 6.765625 -25.5 C 6.992188 -25.269531 7.109375 -24.914062 7.109375 -24.4375 L 7.109375 -1.375 C 7.109375 -0.914062 7 -0.570312 6.78125 -0.34375 C 6.5625 -0.113281 6.1875 0 5.65625 0 Z M 3.640625 0 "/></g></g></g><g fill="#000000" fill-opacity="1"><g transform="translate(471.489817, 81.066729)"><g><path d="M 9.90625 0.390625 C 7.039062 0.390625 4.84375 -0.414062 3.3125 -2.03125 C 1.78125 -3.644531 1.015625 -5.914062 1.015625 -8.84375 C 1.015625 -11.769531 1.78125 -14.035156 3.3125 -15.640625 C 4.84375 -17.253906 7.039062 -18.0625 9.90625 -18.0625 C 12.75 -18.0625 14.941406 -17.253906 16.484375 -15.640625 C 18.023438 -14.035156 18.796875 -11.769531 18.796875 -8.84375 C 18.796875 -5.914062 18.023438 -3.644531 16.484375 -2.03125 C 14.941406 -0.414062 12.75 0.390625 9.90625 0.390625 Z M 9.90625 -2.046875 C 11.726562 -2.046875 13.113281 -2.625 14.0625 -3.78125 C 15.019531 -4.9375 15.5 -6.625 15.5 -8.84375 C 15.5 -11.0625 15.019531 -12.738281 14.0625 -13.875 C 13.113281 -15.019531 11.726562 -15.59375 9.90625 -15.59375 C 8.082031 -15.59375 6.691406 -15.019531 5.734375 -13.875 C 4.773438 -12.738281 4.296875 -11.0625 4.296875 -8.84375 C 4.296875 -6.625 4.773438 -4.9375 5.734375 -3.78125 C 6.691406 -2.625 8.082031 -2.046875 9.90625 -2.046875 Z M 9.90625 -2.046875 "/></g></g></g><g fill="#000000" fill-opacity="1"><g transform="translate(492.855876, 81.066729)"><g><path d="M 2.5 0 C 2.144531 0 1.894531 -0.078125 1.75 -0.234375 C 1.601562 -0.390625 1.53125 -0.625 1.53125 -0.9375 L 1.53125 -16.71875 C 1.53125 -17.050781 1.601562 -17.296875 1.75 -17.453125 C 1.894531 -17.609375 2.148438 -17.6875 2.515625 -17.6875 L 3.71875 -17.6875 C 3.957031 -17.6875 4.144531 -17.648438 4.28125 -17.578125 C 4.425781 -17.503906 4.566406 -17.363281 4.703125 -17.15625 L 13.28125 -5.25 L 13.28125 -16.71875 C 13.28125 -17.050781 13.351562 -17.296875 13.5 -17.453125 C 13.65625 -17.609375 13.90625 -17.6875 14.25 -17.6875 L 15.625 -17.6875 C 15.96875 -17.6875 16.21875 -17.609375 16.375 -17.453125 C 16.53125 -17.296875 16.609375 -17.050781 16.609375 -16.71875 L 16.609375 -0.9375 C 16.609375 -0.625 16.535156 -0.390625 16.390625 -0.234375 C 16.242188 -0.078125 15.988281 0 15.625 0 L 14.40625 0 C 14.164062 0 13.984375 -0.03125 13.859375 -0.09375 C 13.734375 -0.15625 13.59375 -0.289062 13.4375 -0.5 L 4.859375 -12.375 L 4.859375 -0.9375 C 4.859375 -0.625 4.785156 -0.390625 4.640625 -0.234375 C 4.492188 -0.078125 4.238281 0 3.875 0 Z M 2.5 0 "/></g></g></g></svg>